<svg id="图层_1" data-name="图层 1" xmlns="http://www.w3.org/2000/svg" xmlns:xlink="http://www.w3.org/1999/xlink" viewBox="0 0 40 40"><defs><style>.cls-1{fill:#1d9bf6;}.cls-2{fill:url(#未命名的渐变_4);}.cls-3{fill:url(#未命名的渐变_2);}.cls-4{fill:url(#未命名的渐变_4-2);}.cls-5{fill:url(#未命名的渐变_4-3);}</style><linearGradient id="未命名的渐变_4" x1="12.68" y1="26.85" x2="34.39" y2="2.69" gradientTransform="matrix(1, 0, 0, -1, 0, 40.11)" gradientUnits="userSpaceOnUse"><stop offset="0" stop-color="#1ea3f6"/><stop offset="1" stop-color="#25c8f8"/></linearGradient><linearGradient id="未命名的渐变_2" x1="7.92" y1="33.13" x2="31.58" y2="8.8" gradientTransform="matrix(1, 0, 0, -1, 0, 40.11)" gradientUnits="userSpaceOnUse"><stop offset="0" stop-color="#1ea3f6"/><stop offset="1" stop-color="#25c8f8"/></linearGradient><linearGradient id="未命名的渐变_4-2" x1="15.04" y1="30.75" x2="38.45" y2="3.88" xlink:href="#未命名的渐变_4"/><linearGradient id="未命名的渐变_4-3" x1="12.09" y1="23.59" x2="32.32" y2="6.17" xlink:href="#未命名的渐变_4"/></defs><title>未标题-1</title><polygon class="cls-1" points="18.66 15.23 16.43 15.23 16.43 16.46 19.68 16.46 18.66 15.23"/><polygon class="cls-1" points="19.89 16.86 16.43 16.86 16.43 18.08 20.9 18.08 19.89 16.86"/><polygon class="cls-1" points="21.11 18.49 18.87 18.49 19.68 19.71 22.12 19.71 21.11 18.49"/><polygon class="cls-1" points="20.9 21.34 24.54 21.34 24.54 20.12 20.09 20.12 20.9 21.34"/><polygon class="cls-1" points="22.12 22.94 24.54 22.94 24.54 21.75 21.31 21.75 22.12 22.94"/><rect class="cls-1" x="16.43" y="18.49" width="2.24" height="1.22"/><rect class="cls-1" x="16.43" y="20.12" width="2.24" height="1.22"/><rect class="cls-1" x="16.43" y="21.75" width="2.24" height="1.22"/><rect class="cls-1" x="22.33" y="18.49" width="2.24" height="1.22"/><rect class="cls-1" x="22.33" y="16.86" width="2.24" height="1.22"/><rect class="cls-1" x="22.33" y="15.24" width="2.24" height="1.22"/><path class="cls-2" d="M30.32,8.93c-.41-.35-.84-.7-1.28-1a1,1,0,1,0-1.28,1.6c.41.32.84.64,1.25,1,8.43,7.12,11.48,17.47,6.77,23-3.6,4.24-10.7,4.51-17.61,1.22a13.79,13.79,0,0,1-5.58-4.91h0a2.51,2.51,0,0,0-.76-1,2.68,2.68,0,0,0-3.69.35,2.64,2.64,0,0,0,.32,3.75,3.16,3.16,0,0,0,1.08.55h0a1.46,1.46,0,0,0,.35.06l.55.09A14.42,14.42,0,0,1,15,35.32c8.4,4.91,17.73,4.94,22.32-.52C42.76,28.37,39.62,16.78,30.32,8.93Z"/><path class="cls-3" d="M7.76,28.11A1,1,0,0,1,6.46,28C-.29,20.41-2.09,10.82,2.68,5.21,6.14,1.11,12.24.09,18.61,1.92a13.18,13.18,0,0,0,1.45.35l2.44.47c.73.15,1.48.26,2.21.35h.41a2.72,2.72,0,0,1,1.69.81A2.58,2.58,0,0,1,27.5,6a2.7,2.7,0,0,1-4,2.09,9.94,9.94,0,0,1-.9-.61,13.31,13.31,0,0,0-1.25-1l-1.51-1a13.12,13.12,0,0,0-8.34-2.33l-.61.06A10.19,10.19,0,0,0,4.22,6.52C.12,11.37,1.89,19.8,8,26.6a1,1,0,0,1-.2,1.51Z"/><path class="cls-4" d="M8,12.1a2.6,2.6,0,0,0,1.66.61,2.68,2.68,0,0,0,2-.9,2.59,2.59,0,0,0,.58-1.89c0-.09,0-.2,0-.29,3.17-1.4,8.6.29,13.17,4.13,3.81,3.2,6.31,7.41,6.42,10.73a1,1,0,0,0,1,1h0a1.05,1.05,0,0,0,1-1c-.12-3.92-2.88-8.6-7.15-12.21C21.25,7.71,14.86,6,11,7.94a2.59,2.59,0,0,0-1.54-.38,2.51,2.51,0,0,0-1.74.9,2.56,2.56,0,0,0-.61,1.89A2.51,2.51,0,0,0,8,12.1Zm.78-2.7A1.16,1.16,0,0,1,9.54,9h.09a1.12,1.12,0,0,1,.73.26l.15.15a.77.77,0,0,0,.15.17,1.37,1.37,0,0,1,.12.49,1.06,1.06,0,0,1-.26.81A1.12,1.12,0,0,1,8.9,11,1.15,1.15,0,0,1,8.75,9.39Z"/><path class="cls-5" d="M33.81,28.23a2.51,2.51,0,0,0-.9-1.74,2.61,2.61,0,0,0-3.63.29h0a2.56,2.56,0,0,0-.55,2.15c-3.17,1.4-8.6-.29-13.17-4.13-3.75-3.2-6.28-7.41-6.39-10.7a1,1,0,0,0-2,.06c.12,3.92,2.88,8.6,7.15,12.21,3.87,3.26,8.28,5.09,11.92,5.09a8.06,8.06,0,0,0,3.72-.81,2.46,2.46,0,0,0,1.34.38,2.68,2.68,0,0,0,2-.9A2.63,2.63,0,0,0,33.81,28.23Zm-1.69,1a1.15,1.15,0,0,1-1.63.15c-.06,0-.09-.09-.12-.12s-.09-.12-.12-.17A1.15,1.15,0,0,1,32,27.59a1.16,1.16,0,0,1,.41.78A1.09,1.09,0,0,1,32.12,29.19Z"/></svg>