<?xml version="1.0" encoding="utf-8"?>
<!-- Generator: Adobe Illustrator 26.2.1, SVG Export Plug-In . SVG Version: 6.00 Build 0)  -->
<svg version="1.1" id="图层_1" xmlns="http://www.w3.org/2000/svg" xmlns:xlink="http://www.w3.org/1999/xlink" x="0px" y="0px"
	 viewBox="0 0 16 16" style="enable-background:new 0 0 16 16;" xml:space="preserve">
<style type="text/css">
	.st0{fill:#1D9BF6;}
	.st1{fill:url(#SVGID_1_);}
	.st2{fill:url(#SVGID_00000041986971269796528770000005143641670726893732_);}
	.st3{fill:url(#SVGID_00000012463604652814286970000000434272797278315650_);}
	.st4{fill:url(#SVGID_00000089539624747291882800000015480745350629691280_);}
</style>
<g>
	<g>
		<polygon class="st0" points="7.54,6.36 6.77,6.36 6.77,6.78 7.89,6.78 		"/>
		<polygon class="st0" points="7.96,6.92 6.77,6.92 6.77,7.34 8.31,7.34 		"/>
		<polygon class="st0" points="8.38,7.48 7.61,7.48 7.89,7.9 8.73,7.9 		"/>
		<polygon class="st0" points="8.31,8.46 9.56,8.46 9.56,8.04 8.03,8.04 		"/>
		<polygon class="st0" points="8.73,9.01 9.56,9.01 9.56,8.6 8.45,8.6 		"/>
		<rect x="6.77" y="7.48" class="st0" width="0.77" height="0.42"/>
		<rect x="6.77" y="8.04" class="st0" width="0.77" height="0.42"/>
		<rect x="6.77" y="8.6" class="st0" width="0.77" height="0.42"/>
		<rect x="8.8" y="7.48" class="st0" width="0.77" height="0.42"/>
		<rect x="8.8" y="6.92" class="st0" width="0.77" height="0.42"/>
		<rect x="8.8" y="6.36" class="st0" width="0.77" height="0.42"/>
	</g>
	<g>
		<g>
			<linearGradient id="SVGID_1_" gradientUnits="userSpaceOnUse" x1="5.4837" y1="5.6784" x2="12.9527" y2="13.9915">
				<stop  offset="1.343419e-03" style="stop-color:#1EA3F6"/>
				<stop  offset="1" style="stop-color:#25C8F8"/>
			</linearGradient>
			<path class="st1" d="M11.55,4.19c-0.14-0.12-0.29-0.24-0.44-0.35c-0.14-0.11-0.36-0.11-0.48,0.03c-0.14,0.15-0.12,0.4,0.04,0.52
				c0.14,0.11,0.29,0.22,0.43,0.34c2.9,2.45,3.95,6.01,2.33,7.92c-1.24,1.46-3.68,1.55-6.06,0.42c-0.78-0.37-1.44-0.96-1.92-1.69
				l0,0l0,0c-0.06-0.13-0.14-0.25-0.26-0.34c-0.38-0.31-0.96-0.25-1.27,0.12c-0.33,0.39-0.28,0.97,0.11,1.29
				c0.11,0.09,0.24,0.15,0.37,0.19l0,0l0.01,0c0.04,0.01,0.08,0.02,0.12,0.02l0.19,0.03c0.55,0.1,1.08,0.3,1.57,0.58
				c2.89,1.69,6.1,1.7,7.68-0.18C15.83,10.88,14.75,6.89,11.55,4.19z"/>
			
				<linearGradient id="SVGID_00000060740963738315698620000005329612994265697429_" gradientUnits="userSpaceOnUse" x1="3.8398" y1="3.5213" x2="11.9814" y2="11.8913">
				<stop  offset="0" style="stop-color:#1EA3F6"/>
				<stop  offset="1" style="stop-color:#25C8F8"/>
			</linearGradient>
			<path style="fill:url(#SVGID_00000060740963738315698620000005329612994265697429_);" d="M3.79,10.79
				c-0.14,0.1-0.34,0.07-0.45-0.05c-2.32-2.6-2.94-5.9-1.3-7.83C3.23,1.5,5.33,1.15,7.52,1.78C7.69,1.83,7.85,1.87,8.02,1.9
				l0.84,0.16c0.25,0.05,0.51,0.09,0.76,0.12l0,0h0c0.04,0,0.08,0,0.13,0l0.01,0l0,0c0.21,0.02,0.41,0.11,0.58,0.28
				c0.18,0.19,0.27,0.45,0.24,0.71C10.5,3.89,9.74,4.2,9.2,3.89C9.12,3.84,8.99,3.76,8.89,3.68C8.75,3.56,8.61,3.44,8.46,3.34
				L7.94,2.98C7.1,2.41,6.09,2.1,5.07,2.18C5,2.19,4.93,2.19,4.86,2.2C3.93,2.32,3.13,2.7,2.57,3.36c-1.41,1.67-0.8,4.57,1.29,6.91
				C4,10.43,3.97,10.67,3.79,10.79L3.79,10.79z"/>
		</g>
		<g>
			
				<linearGradient id="SVGID_00000031890712736019178460000013987058118229976235_" gradientUnits="userSpaceOnUse" x1="6.2902" y1="4.3401" x2="14.3446" y2="13.5857">
				<stop  offset="1.343419e-03" style="stop-color:#1EA3F6"/>
				<stop  offset="1" style="stop-color:#25C8F8"/>
			</linearGradient>
			<path style="fill:url(#SVGID_00000031890712736019178460000013987058118229976235_);" d="M3.86,5.28
				c0.17,0.14,0.37,0.21,0.57,0.21c0.25,0,0.5-0.11,0.68-0.31C5.26,5,5.33,4.77,5.31,4.53c0-0.03-0.01-0.07-0.01-0.1
				c1.09-0.48,2.96,0.1,4.53,1.42c1.31,1.1,2.17,2.55,2.21,3.69c0.01,0.19,0.16,0.34,0.35,0.34c0,0,0.01,0,0.01,0
				c0.19-0.01,0.34-0.17,0.34-0.36c-0.04-1.35-0.99-2.96-2.46-4.2C8.43,3.77,6.23,3.17,4.89,3.85c-0.16-0.1-0.34-0.14-0.53-0.13
				c-0.24,0.02-0.45,0.13-0.6,0.31C3.6,4.22,3.53,4.45,3.55,4.68C3.57,4.92,3.68,5.13,3.86,5.28z M4.13,4.35
				C4.2,4.27,4.29,4.22,4.4,4.21c0.01,0,0.02,0,0.03,0c0.09,0,0.18,0.03,0.25,0.09C4.7,4.32,4.71,4.33,4.73,4.35
				c0.01,0.02,0.03,0.04,0.05,0.06C4.8,4.46,4.82,4.52,4.82,4.58C4.83,4.68,4.8,4.78,4.73,4.86C4.59,5.03,4.34,5.05,4.18,4.91
				C4.01,4.77,3.99,4.52,4.13,4.35z"/>
			
				<linearGradient id="SVGID_00000178178399694589144930000017553311906952200122_" gradientUnits="userSpaceOnUse" x1="5.2777" y1="6.8026" x2="12.2389" y2="12.7942">
				<stop  offset="1.343419e-03" style="stop-color:#1EA3F6"/>
				<stop  offset="1" style="stop-color:#25C8F8"/>
			</linearGradient>
			<path style="fill:url(#SVGID_00000178178399694589144930000017553311906952200122_);" d="M12.75,10.83
				c-0.02-0.24-0.13-0.45-0.31-0.6c-0.37-0.31-0.93-0.27-1.25,0.1v0c-0.18,0.21-0.24,0.49-0.19,0.74c-1.09,0.48-2.96-0.1-4.53-1.42
				C5.18,8.55,4.31,7.1,4.27,5.97C4.26,5.77,4.1,5.62,3.91,5.63C3.72,5.63,3.57,5.79,3.57,5.99c0.04,1.35,0.99,2.96,2.46,4.2
				c1.33,1.12,2.85,1.75,4.1,1.75c0.48,0,0.91-0.09,1.28-0.28c0.14,0.09,0.3,0.13,0.46,0.13c0.25,0,0.5-0.11,0.68-0.31
				C12.7,11.29,12.77,11.07,12.75,10.83z M12.17,11.16c-0.14,0.17-0.39,0.19-0.56,0.05c-0.02-0.01-0.03-0.03-0.04-0.04
				c-0.01-0.02-0.03-0.04-0.04-0.06c-0.08-0.14-0.07-0.32,0.04-0.45c0.14-0.17,0.39-0.19,0.56-0.05c0.08,0.07,0.13,0.16,0.14,0.27
				C12.28,10.98,12.24,11.08,12.17,11.16z"/>
		</g>
	</g>
</g>
</svg>
